<svg width="172" height="275" viewBox="0 0 172 275" fill="none" xmlns="http://www.w3.org/2000/svg">
<path d="M50.5 231.5H17C16.4477 231.5 16 231.052 16 230.5V35C16 34.4477 15.5523 34 15 34H6.41421C5.52331 34 5.07714 32.9229 5.70711 32.2929L32.3468 5.65321C32.7156 5.28438 33.306 5.26099 33.7028 5.59948L64.9356 32.2392C65.6429 32.8424 65.2162 34 64.2866 34H52.5C51.9477 34 51.5 34.4477 51.5 35V125.5C51.5 126.052 51.9477 126.5 52.5 126.5H115.5C116.052 126.5 116.5 126.052 116.5 125.5V55.5C116.5 54.9477 116.948 54.5 117.5 54.5H152.5C153.052 54.5 153.5 54.9477 153.5 55.5V236.5C153.5 237.052 153.948 237.5 154.5 237.5H165.086C165.977 237.5 166.423 238.577 165.793 239.207L135.707 269.293C135.317 269.683 134.683 269.683 134.293 269.293L104.207 239.207C103.577 238.577 104.023 237.5 104.914 237.5H115.5C116.052 237.5 116.5 237.052 116.5 236.5V165C116.5 164.448 116.052 164 115.5 164H52.5C51.9477 164 51.5 164.448 51.5 165V230.5C51.5 231.052 51.0523 231.5 50.5 231.5Z" stroke="white" stroke-width="10"/>
</svg>
