<svg width="184" height="228" viewBox="0 0 184 228" fill="none" xmlns="http://www.w3.org/2000/svg">
<path d="M14.1532 104.688L109.555 7.78775C113.555 3.78775 120.055 3.78775 126.055 9.78775C130.803 14.5356 128.767 21.3055 127.11 24.194C127.073 24.2579 127.03 24.3149 126.98 24.3686L106.631 46.1043C106.033 46.7432 106.468 48.0174 107.279 48.3469C111.112 49.9052 117.067 54.3428 120.055 56.7878L147.501 83.7347C147.537 83.77 147.569 83.8064 147.599 83.8469C150.096 87.2168 153.52 95.3229 147.555 101.288C141.555 107.288 133.722 103.788 130.555 101.288L105.055 77.7878C98.3281 71.0606 84.5217 73.892 78.2561 76.2126C78.1206 76.2628 78.0075 76.3363 77.9062 76.4392C67.5017 87.0112 44.6094 110.234 35.0553 119.788C25.4997 129.343 31.0038 143.985 34.9997 150.202C35.0376 150.261 35.0776 150.31 35.1271 150.36L75.0553 190.288C86.6553 201.888 101.222 195.121 107.055 190.288L130.555 168.288C133.555 165.621 141.155 161.888 147.555 168.288C153.955 174.688 150.222 181.621 147.555 184.288L120.055 211.788C99.2553 232.588 69.0553 217.788 56.5553 207.788L14.0553 162.788C-2.29292 146.44 7.16179 117.471 13.9905 104.907C14.0347 104.825 14.0882 104.754 14.1532 104.688Z" stroke="white" stroke-width="10"/>
<rect x="76.0553" y="126.288" width="103" height="18" rx="9" stroke="white" stroke-width="8"/>
</svg>
