<svg width="446" height="427" viewBox="0 0 446 427" fill="none" xmlns="http://www.w3.org/2000/svg">
<path d="M199.782 368.673L190.096 367.533C186.123 367.065 178.365 364.54 179.114 358.184C179.862 351.828 184.139 349.714 186.183 349.451C187.693 349.461 191.762 350.813 195.968 356.141C198.838 359.777 199.703 364.77 199.782 368.673C199.818 370.491 199.683 372.073 199.501 373.171C199.091 376.647 197.607 384.125 194.943 386.228C191.612 388.856 188.486 394.026 177.97 397.823C169.557 400.86 159.568 397.334 155.624 395.191C151.516 393.029 142.936 386.649 141.489 378.423C139.679 368.141 139.591 364.606 140.585 356.165C141.381 349.411 149.975 324.881 154.173 313.461L184.237 250.545L214.973 186.198L250.91 111.891L267.943 82.6822C273.162 75.4094 288.883 57.0553 310.01 41.8215C331.136 26.5877 364.908 23.1133 379.153 23.2804C390.506 23.7782 417.242 29.8802 433.364 50.3058C444.17 63.9961 441.18 77.8109 435.23 87.7811C435.106 88.0004 434.966 88.2308 434.81 88.4702C431.959 93.0587 428.514 96.7823 425.589 99.2322C423.203 100.965 417.339 104.302 412.97 103.788C407.507 103.144 395.852 103.786 388.843 94.9051C381.833 86.0245 379.38 81.2045 379.789 77.7285L381.31 64.8177C383.199 60.1735 388.865 51.1072 396.413 51.996C403.961 52.8848 405.731 54.1002 405.672 54.5967C407.795 56.5248 411.887 61.6721 411.279 66.8365C410.671 72.0008 409.584 75.5312 409.117 76.6509L404.092 85.1213C402.319 88.7724 401.754 96.4255 413.671 97.8289C424.925 99.154 432.168 92.5254 434.81 88.4702C434.951 88.2426 435.091 88.0129 435.23 87.7811C441.18 77.8109 444.17 63.9961 433.364 50.3058C417.242 29.8802 390.506 23.7782 379.153 23.2804C364.908 23.1133 331.136 26.5877 310.01 41.8215C288.883 57.0553 273.162 75.4094 267.943 82.6822L250.91 111.891L214.973 186.198L184.237 250.545L154.173 313.461C149.975 324.881 141.381 349.411 140.585 356.165C139.591 364.606 139.679 368.141 141.489 378.423C142.936 386.649 151.516 393.029 155.624 395.191C159.568 397.334 169.557 400.86 177.97 397.823C188.486 394.026 191.612 388.856 194.943 386.228C197.607 384.125 199.091 376.647 199.501 373.171C199.683 372.073 199.818 370.491 199.782 368.673Z" fill="white"/>
<path d="M199.782 368.673L190.096 367.533C186.123 367.065 178.365 364.54 179.114 358.184C179.862 351.828 184.139 349.714 186.183 349.451C187.693 349.461 191.762 350.813 195.968 356.141C200.174 361.47 200.076 369.715 199.501 373.171C199.091 376.647 197.607 384.125 194.943 386.228C191.612 388.856 188.486 394.026 177.97 397.823C169.557 400.86 159.568 397.334 155.624 395.191C151.516 393.029 142.936 386.649 141.489 378.423C139.679 368.141 139.591 364.606 140.585 356.165C141.381 349.411 149.975 324.881 154.173 313.461L184.237 250.545L214.973 186.198L250.91 111.891L267.943 82.6822C273.162 75.4094 288.883 57.0553 310.01 41.8215C331.136 26.5877 364.908 23.1133 379.153 23.2804C390.506 23.7782 417.242 29.8802 433.364 50.3058C444.17 63.9961 441.18 77.8109 435.23 87.7811M435.23 87.7811C432.302 92.6862 428.659 96.6608 425.589 99.2322C423.203 100.965 417.339 104.302 412.97 103.788C407.507 103.144 395.852 103.786 388.843 94.9051C381.833 86.0245 379.38 81.2045 379.789 77.7285C380.117 74.9477 380.939 67.9626 381.31 64.8177C383.199 60.1735 388.865 51.1072 396.413 51.996C403.961 52.8848 405.731 54.1002 405.672 54.5967C407.795 56.5248 411.887 61.6721 411.279 66.8365C410.671 72.0008 409.584 75.5312 409.117 76.6509L404.092 85.1213C402.319 88.7724 401.754 96.4255 413.671 97.8289C425.589 99.2322 433.009 91.7151 435.23 87.7811Z" stroke="white" stroke-width="8"/>
<path d="M28.1229 107.624C25.3889 106.899 22.3875 112.151 21.2285 114.867L36.6222 116.68C47.5114 119.976 54.283 132.017 56.3077 137.626C78.9983 191.482 124.648 300.335 125.723 304.892C126.797 309.448 130.746 310.685 132.586 310.734L151.631 311.467L167.993 275.131C169.022 266.391 166.846 259.221 165.629 256.728L137.448 192.492L119.897 149.142C119.255 146.045 119.01 137.86 123.171 129.892C127.331 121.924 138.771 117.129 143.97 115.728C149.252 111.919 149.443 109.156 148.878 108.25C109.766 108.343 30.857 108.348 28.1229 107.624Z" fill="white" stroke="white"/>
</svg>
